# xmcd CD database file
#
# Track frame offsets:
#	150
#	5409
#	54104
#	95131
#	143898
#	172932
#	205282
#	252385
#	280637
#	328790
#
# Disc length: 4427 seconds
#
# Revision: 0
# Processed by: cddbd v1.5.2PL0 Copyright (c) Steve Scherf et al.
# Submitted via: CDex 1.51
#
DISCID=8811490a
DTITLE=Abraham-Hicks - 10-13-07 - Tampa, FL
DYEAR=2007
DGENRE=New Age
TTITLE0=Abraham-Hicks Publications
TTITLE1=You always knew who you were
TTITLE2=How could a baby get worried?
TTITLE3=Just lean a little downstream
TTITLE4=Dad's frightening diagnosis?
TTITLE5=Incompatable business partner?
TTITLE6=Discord in family, work, and arm
TTITLE7=Nurse shuns meds, but her kids?
TTITLE8=Disown her unloving mother?
TTITLE9=Saturday, Tampa, FL closing
EXTD=YEAR: 2007
EXTT0=
EXTT1=
EXTT2=
EXTT3=
EXTT4=
EXTT5=
EXTT6=
EXTT7=
EXTT8=
EXTT9=
PLAYORDER=
